<?xml version="1.0" encoding="utf-8"?>
<svg xmlns="http://www.w3.org/2000/svg">
  <defs>
    <linearGradient data-v-fde0c5aa="" gradientTransform="rotate(25)" id="d8066fea-34b8-4e70-bced-896db1a5858b" x1="0%" y1="0%" x2="100%" y2="0%">
      <stop data-v-fde0c5aa="" offset="0" stop-color="#968ABF" stop-opacity="1"/>
      <stop data-v-fde0c5aa="" offset="1" stop-color="#E4A8AA" stop-opacity="1"/>
    </linearGradient>
    <linearGradient gradientUnits="userSpaceOnUse" x1="20.675" y1="4.41" x2="20.675" y2="14.52" id="gradient-0" gradientTransform="matrix(-0.25201, 0.967725, -4.542036, -1.182825, 67.538227, 0.318351)">
      <stop offset="0" style="stop-color: rgb(150, 138, 191);"/>
      <stop offset="1" style="stop-color: rgb(228, 168, 170);"/>
    </linearGradient>
    <linearGradient gradientUnits="userSpaceOnUse" x1="162.04" y1="2.1" x2="162.04" y2="11.59" id="gradient-1" gradientTransform="matrix(0.295969, -0.955198, 38.655358, 11.977372, -151.405019, 41.798666)">
      <stop offset="0" style="stop-color: rgb(228, 168, 170);"/>
      <stop offset="1" style="stop-color: rgb(150, 138, 191);"/>
    </linearGradient>
  </defs>
  <rect data-v-fde0c5aa="" fill="transparent" x="761.701" y="403.088" width="286.391" height="118.664" class="logo-background-square" rx="21.334" ry="21.334" style=""/>
  <g data-v-fde0c5aa="" id="a9f3288a-b8d0-40a5-bd8c-01ec30ce8759" fill="#DF99D8" transform="matrix(5.176118, 0, 0, 5.176118, 903.849548, 396.333832)" style="">
    <path d="M4.35 14.35L4.35 10.23L8.01 4.58L7.67 4.58L4.23 9.90L4.19 9.90L0.74 4.58L0.39 4.58L4.05 10.23L4.05 14.35ZM16.07 14.35L12.81 4.58L12.39 4.58L9.13 14.35L9.45 14.35L10.54 11.07L14.66 11.07L15.75 14.35ZM14.57 10.81L10.63 10.81L12.57 4.93L12.61 4.93ZM21.06 14.52C22.96 14.52 24.18 13.62 24.18 11.87C24.18 10.72 23.69 9.62 21.63 9.28L20.51 9.10C19.29 8.90 18.26 8.39 18.26 6.86C18.26 5.40 19.28 4.69 20.96 4.69C22.36 4.69 23.21 5.12 23.79 5.96L24.02 5.77C23.48 4.97 22.58 4.41 20.99 4.41C19.15 4.41 17.95 5.21 17.95 6.86C17.95 8.01 18.48 9.07 20.45 9.39L21.57 9.58C22.78 9.77 23.87 10.26 23.87 11.89C23.87 13.43 22.83 14.24 21.06 14.24C19.46 14.24 18.66 13.64 17.98 12.74L17.72 12.92C18.42 13.85 19.33 14.52 21.06 14.52ZM32.40 14.35L32.40 14.07L27.02 14.07L27.02 9.53L32.20 9.53L32.20 9.25L27.02 9.25L27.02 4.86L32.40 4.86L32.40 4.58L26.71 4.58L26.71 14.35ZM35.42 9.84L37.65 9.84L40.53 14.35L40.89 14.35L38.00 9.84L38.53 9.84C40.12 9.84 40.96 8.81 40.96 7.21C40.96 5.61 40.12 4.58 38.53 4.58L35.11 4.58L35.11 14.35L35.42 14.35ZM35.42 9.56L35.42 4.86L38.53 4.86C39.97 4.86 40.63 5.85 40.63 6.92L40.63 7.50C40.63 8.57 39.97 9.56 38.53 9.56Z" style="fill-rule: nonzero; fill: url(#gradient-0);"/>
  </g>
  <g data-v-fde0c5aa="" id="b2ad26bf-71b0-41bd-b7e1-a871e5b4cf0b" stroke="none" fill="url(#d8066fea-34b8-4e70-bced-896db1a5858b)" transform="matrix(0.002196, 0, 0, 0.002196, 762.274109, 395.143768)" style="">
    <path d="M6808 18233L24753 5119c76-56 165-80 252-77l9910-146c100-8 202 21 282 86l18200 12940c78 56 130 135 154 221h1l2551 9366c23 85 17 170-12 247l-6062 20977c-25 85-75 156-141 206l-7944 6075c-78 65-181 100-286 92l-22745-53c-90 0-173-30-240-80l-7433-5574c-67-50-113-117-138-191h-1L3906 27980c-29-86-27-175 0-255l2740-9259c24-93 81-177 163-232zm23044-2054c10-8 19-15 30-22l4962-3657c143-105 332-100 468-3l19723 14135-2218-8145L34956 5788 14802 21014l1614 5066 13437-9902zm928 308l18478 13395c143 104 197 285 146 445l-6981 23314 6876-5258 5956-20609-20173-14458-4302 3171zm10610 37820l7169-23944-4453-3228-7059 21899c-51 160-201 276-378 277l-23970 185 6347 4759 22344 52zm2037-27665l-13322-9658-13434 9900 4871 15293c29 90 23 183-9 265l16721 39c22 0 44 2 65 5l5107-15844zm-27594 236c-6-16-12-33-16-50l-1851-5812c-66-163-18-357 130-469L33735 5711l-8612 127L7505 18713l8123 23716 5163 12c-3-8-6-15-8-23l-4950-15539zm-4059 21828l24602-190 1689-5238-22697-52c-176 11-344-96-404-270L7060 19878l-2357 7966 7072 20864z"/>
  </g>
  <g data-v-fde0c5aa="" id="584a34e4-a0e6-407f-8d62-33da489276f5" fill="#DF99D8" transform="matrix(0.647933, 0, 0, 0.647933, 905.874634, 485.814941)" style="">
    <path d="M4.93 7.81L8.81 2.21L7.53 2.21L4.40 6.72L1.26 2.21L-0.01 2.21L3.88 7.81L3.88 11.48L4.93 11.48ZM23.76 3.22L23.76 2.21L16.94 2.21L16.94 11.48L23.76 11.48L23.76 10.47L17.99 10.47L17.99 7.35L23.14 7.35L23.14 6.33L17.99 6.33L17.99 3.22ZM39.03 2.21L31.51 2.21L31.51 3.22L34.75 3.22L34.75 11.48L35.80 11.48L35.80 3.22L39.03 3.22ZM61.50 2.21L60.19 2.21L56.25 11.48L57.41 11.48L58.55 8.79L63.14 8.79L64.27 11.48L65.44 11.48ZM58.95 7.83L60.84 3.30L62.73 7.83ZM80.56 2.21L80.56 10.01L74.83 2.21L73.61 2.21L73.61 11.48L74.66 11.48L74.66 3.65L80.39 11.48L81.61 11.48L81.61 2.21ZM94.99 2.10C92.18 2.10 90.29 4.21 90.29 6.85C90.29 9.48 92.18 11.59 94.99 11.59C97.80 11.59 99.69 9.48 99.69 6.85C99.69 4.21 97.80 2.10 94.99 2.10ZM94.99 10.57C92.74 10.57 91.34 8.93 91.34 6.85C91.34 4.76 92.74 3.12 94.99 3.12C97.24 3.12 98.64 4.76 98.64 6.85C98.64 8.93 97.24 10.57 94.99 10.57ZM114.56 2.21L107.04 2.21L107.04 3.22L110.28 3.22L110.28 11.48L111.33 11.48L111.33 3.22L114.56 3.22ZM129.33 2.21L129.33 6.33L123.94 6.33L123.94 2.21L122.89 2.21L122.89 11.48L123.94 11.48L123.94 7.35L129.33 7.35L129.33 11.48L130.38 11.48L130.38 2.21ZM146.47 3.22L146.47 2.21L139.65 2.21L139.65 11.48L146.47 11.48L146.47 10.47L140.70 10.47L140.70 7.35L145.85 7.35L145.85 6.33L140.70 6.33L140.70 3.22ZM156.21 7.92L159.43 7.92L161.67 11.48L162.92 11.48L160.48 7.74C161.52 7.50 162.72 6.90 162.72 5.11C162.72 3.35 161.50 2.21 159.60 2.21L155.16 2.21L155.16 11.48L156.21 11.48ZM156.21 3.21L159.47 3.21C160.79 3.21 161.67 3.93 161.67 5.11C161.67 6.55 160.41 6.93 159.42 6.93L156.21 6.93ZM182.13 4.65C182.13 4.03 182.49 3.08 184.59 3.08C186.28 3.08 187.07 3.82 187.18 4.75L188.26 4.75C188.17 3.36 187.05 2.10 184.59 2.10C182.27 2.10 181.10 3.15 181.10 4.66C181.10 7.84 187.45 6.69 187.45 8.96C187.45 10.05 186.47 10.60 184.90 10.60C183.29 10.60 181.99 10.05 181.92 8.71L180.82 8.71C180.96 10.37 182.08 11.59 184.83 11.59C187.11 11.59 188.50 10.64 188.50 8.92C188.50 5.68 182.13 6.80 182.13 4.65ZM201.28 2.21L199.96 2.21L196.03 11.48L197.19 11.48L198.32 8.79L202.92 8.79L204.05 11.48L205.21 11.48ZM198.73 7.83L200.62 3.30L202.51 7.83ZM219.14 2.21L211.62 2.21L211.62 3.22L214.86 3.22L214.86 11.48L215.91 11.48L215.91 3.22L219.14 3.22ZM238.07 4.65C238.07 4.03 238.43 3.08 240.53 3.08C242.23 3.08 243.01 3.82 243.12 4.75L244.20 4.75C244.12 3.36 243.00 2.10 240.53 2.10C238.21 2.10 237.05 3.15 237.05 4.66C237.05 7.84 243.39 6.69 243.39 8.96C243.39 10.05 242.41 10.60 240.84 10.60C239.23 10.60 237.93 10.05 237.86 8.71L236.77 8.71C236.91 10.37 238.03 11.59 240.77 11.59C243.05 11.59 244.44 10.64 244.44 8.92C244.44 5.68 238.07 6.80 238.07 4.65ZM257.18 2.10C254.37 2.10 252.48 4.21 252.48 6.85C252.48 9.48 254.37 11.59 257.18 11.59C259.99 11.59 261.88 9.48 261.88 6.85C261.88 4.21 259.99 2.10 257.18 2.10ZM257.18 10.57C254.93 10.57 253.53 8.93 253.53 6.85C253.53 4.76 254.93 3.12 257.18 3.12C259.43 3.12 260.83 4.76 260.83 6.85C260.83 8.93 259.43 10.57 257.18 10.57ZM270.56 2.21L270.56 11.48L276.67 11.48L276.67 10.47L271.61 10.47L271.61 2.21ZM291.49 2.21L288.29 10.29L285.08 2.21L283.93 2.21L287.69 11.48L288.89 11.48L292.64 2.21ZM307.64 3.22L307.64 2.21L300.82 2.21L300.82 11.48L307.64 11.48L307.64 10.47L301.87 10.47L301.87 7.35L307.02 7.35L307.02 6.33L301.87 6.33L301.87 3.22ZM317.38 7.92L320.60 7.92L322.84 11.48L324.09 11.48L321.65 7.74C322.69 7.50 323.89 6.90 323.89 5.11C323.89 3.35 322.67 2.21 320.77 2.21L316.33 2.21L316.33 11.48L317.38 11.48ZM317.38 3.21L320.64 3.21C321.96 3.21 322.84 3.93 322.84 5.11C322.84 6.55 321.58 6.93 320.59 6.93L317.38 6.93Z" style="fill: url(#gradient-1);"/>
  </g>
</svg>